<svg width="38" height="32" viewBox="0 0 38 32" fill="none" xmlns="http://www.w3.org/2000/svg">
    <defs>
        <linearGradient id="paint0_linear_113:2920" x1="30.9564" y1="0.166687" x2="2.12319" y2="40.3806" gradientUnits="userSpaceOnUse">
            <stop offset="0" stop-color="#E312C3"/>
            <stop offset="1" stop-color="#F9ED32"/>
        </linearGradient>
    </defs>
    <path d="M32.3332 13.5C31.8911 13.5 31.4672 13.6756 31.1547 13.9882C30.8421 14.3007 30.6665 14.7247 30.6665 15.1667V26.8334C30.6665 27.2754 30.4909 27.6993 30.1783 28.0119C29.8658 28.3244 29.4419 28.5 28.9998 28.5H5.6665C5.22448 28.5 4.80055 28.3244 4.48799 28.0119C4.17543 27.6993 3.99984 27.2754 3.99984 26.8334V13.5C3.99984 13.058 4.17543 12.6341 4.48799 12.3215C4.80055 12.0089 5.22448 11.8334 5.6665 11.8334H8.99984C9.36328 11.8523 9.72294 11.7518 10.0239 11.5472C10.3248 11.3425 10.5505 11.045 10.6665 10.7L11.5665 7.96669C11.6783 7.63565 11.8913 7.34813 12.1755 7.14476C12.4596 6.94139 12.8004 6.83245 13.1498 6.83335H22.3332C22.7752 6.83335 23.1991 6.65776 23.5117 6.3452C23.8242 6.03264 23.9998 5.60871 23.9998 5.16669C23.9998 4.72466 23.8242 4.30074 23.5117 3.98818C23.1991 3.67562 22.7752 3.50002 22.3332 3.50002H13.0665C12.0191 3.50198 10.9987 3.83283 10.1494 4.44586C9.30017 5.0589 8.66485 5.92317 8.33317 6.91669L7.79984 8.58335H5.6665C4.34042 8.58335 3.06865 9.11014 2.13097 10.0478C1.19329 10.9855 0.666504 12.2573 0.666504 13.5834V26.9167C0.666504 28.2428 1.19329 29.5145 2.13097 30.4522C3.06865 31.3899 4.34042 31.9167 5.6665 31.9167H28.9998C30.3259 31.9167 31.5977 31.3899 32.5354 30.4522C33.473 29.5145 33.9998 28.2428 33.9998 26.9167V15.25C34.0111 15.0242 33.9764 14.7985 33.8977 14.5866C33.819 14.3747 33.6981 14.181 33.5421 14.0173C33.3862 13.8536 33.1987 13.7233 32.9908 13.6344C32.783 13.5454 32.5592 13.4997 32.3332 13.5ZM17.3332 11.8334C16.0146 11.8334 14.7257 12.2243 13.6294 12.9569C12.533 13.6894 11.6786 14.7306 11.174 15.9488C10.6694 17.167 10.5374 18.5074 10.7946 19.8006C11.0518 21.0938 11.6868 22.2817 12.6191 23.2141C13.5515 24.1464 14.7394 24.7814 16.0326 25.0386C17.3258 25.2958 18.6662 25.1638 19.8844 24.6592C21.1026 24.1546 22.1438 23.3001 22.8763 22.2038C23.6088 21.1075 23.9998 19.8186 23.9998 18.5C23.9998 16.7319 23.2975 15.0362 22.0472 13.786C20.797 12.5357 19.1013 11.8334 17.3332 11.8334ZM17.3332 21.8334C16.6739 21.8334 16.0294 21.6379 15.4813 21.2716C14.9331 20.9053 14.5059 20.3847 14.2536 19.7756C14.0013 19.1665 13.9353 18.4963 14.0639 17.8497C14.1925 17.2031 14.51 16.6092 14.9761 16.143C15.4423 15.6768 16.0363 15.3594 16.6829 15.2307C17.3295 15.1021 17.9997 15.1681 18.6088 15.4204C19.2179 15.6727 19.7385 16.1 20.1047 16.6481C20.471 17.1963 20.6665 17.8407 20.6665 18.5C20.6665 19.3841 20.3153 20.2319 19.6902 20.857C19.0651 21.4822 18.2172 21.8334 17.3332 21.8334ZM35.6665 3.50002H33.9998V1.83335C33.9998 1.39133 33.8242 0.967403 33.5117 0.654842C33.1991 0.342282 32.7752 0.166687 32.3332 0.166687C31.8911 0.166687 31.4672 0.342282 31.1547 0.654842C30.8421 0.967403 30.6665 1.39133 30.6665 1.83335V3.50002H28.9998C28.5578 3.50002 28.1339 3.67562 27.8213 3.98818C27.5088 4.30074 27.3332 4.72466 27.3332 5.16669C27.3332 5.60871 27.5088 6.03264 27.8213 6.3452C28.1339 6.65776 28.5578 6.83335 28.9998 6.83335H30.6665V8.50002C30.6665 8.94205 30.8421 9.36597 31.1547 9.67853C31.4672 9.99109 31.8911 10.1667 32.3332 10.1667C32.7752 10.1667 33.1991 9.99109 33.5117 9.67853C33.8242 9.36597 33.9998 8.94205 33.9998 8.50002V6.83335H35.6665C36.1085 6.83335 36.5325 6.65776 36.845 6.3452C37.1576 6.03264 37.3332 5.60871 37.3332 5.16669C37.3332 4.72466 37.1576 4.30074 36.845 3.98818C36.5325 3.67562 36.1085 3.50002 35.6665 3.50002Z" fill="url(#paint0_linear_113:2920)"/>

</svg>
