<svg width="34" height="34" viewBox="0 0 34 34" fill="none" xmlns="http://www.w3.org/2000/svg">
    <defs>
        <linearGradient id="paint0_linear_172:496" x1="27.8697" y1="0.333313" x2="-3.53124" y2="38.256" gradientUnits="userSpaceOnUse">
            <stop offset="0" stop-color="#E312C3"/>
            <stop offset="1" stop-color="#F9ED32"/>
        </linearGradient>
    </defs>
    <path d="M27.0002 22V5.33331C27.0002 4.00723 26.4734 2.73546 25.5357 1.79778C24.598 0.860097 23.3262 0.333313 22.0002 0.333313H5.3335C4.00741 0.333313 2.73564 0.860097 1.79796 1.79778C0.86028 2.73546 0.333496 4.00723 0.333496 5.33331V22C0.333496 23.3261 0.86028 24.5978 1.79796 25.5355C2.73564 26.4732 4.00741 27 5.3335 27H22.0002C23.3262 27 24.598 26.4732 25.5357 25.5355C26.4734 24.5978 27.0002 23.3261 27.0002 22ZM3.66683 5.33331C3.66683 4.89129 3.84242 4.46736 4.15498 4.1548C4.46755 3.84224 4.89147 3.66665 5.3335 3.66665H22.0002C22.4422 3.66665 22.8661 3.84224 23.1787 4.1548C23.4912 4.46736 23.6668 4.89129 23.6668 5.33331V12.6L21.8668 10.7833C21.0668 9.98312 19.9817 9.53348 18.8502 9.53331C17.7194 9.53711 16.6356 9.9862 15.8335 10.7833L14.3168 12.3L12.9668 10.95C12.0534 10.0512 10.8233 9.5475 9.54183 9.5475C8.26037 9.5475 7.03026 10.0512 6.11683 10.95L3.66683 13.4166V5.33331ZM3.86683 22.75C3.73831 22.5207 3.66953 22.2628 3.66683 22V18.1166L8.46683 13.3166C8.60776 13.175 8.77527 13.0627 8.95976 12.986C9.14424 12.9093 9.34205 12.8699 9.54183 12.8699C9.74161 12.8699 9.93942 12.9093 10.1239 12.986C10.3084 13.0627 10.4759 13.175 10.6168 13.3166L12.0002 14.6666L3.86683 22.75ZM18.2002 13.15C18.2824 13.0596 18.3828 12.9876 18.4949 12.9388C18.6069 12.89 18.728 12.8654 18.8502 12.8666C18.9724 12.8654 19.0934 12.89 19.2055 12.9388C19.3175 12.9876 19.4179 13.0596 19.5002 13.15L23.6668 17.3V22C23.6668 22.442 23.4912 22.8659 23.1787 23.1785C22.8661 23.4911 22.4422 23.6666 22.0002 23.6666H7.66683L18.2002 13.15ZM32.0002 6.99998C31.5581 6.99998 31.1342 7.17558 30.8216 7.48814C30.5091 7.8007 30.3335 8.22462 30.3335 8.66665V25.3333C30.3335 26.6594 29.8067 27.9312 28.869 28.8688C27.9313 29.8065 26.6596 30.3333 25.3335 30.3333H8.66683C8.2248 30.3333 7.80088 30.5089 7.48832 30.8215C7.17576 31.134 7.00016 31.558 7.00016 32C7.00016 32.442 7.17576 32.8659 7.48832 33.1785C7.80088 33.4911 8.2248 33.6666 8.66683 33.6666H25.3335C27.5436 33.6666 29.6632 32.7887 31.2261 31.2259C32.7889 29.6631 33.6668 27.5435 33.6668 25.3333V8.66665C33.6668 8.22462 33.4912 7.8007 33.1787 7.48814C32.8661 7.17558 32.4422 6.99998 32.0002 6.99998Z" fill="url(#paint0_linear_172:496)"/>

</svg>
