<svg xmlns="http://www.w3.org/2000/svg" width="254.501" height="227.944" viewBox="0 0 254.501 227.944">
  <g id="Group_3032" data-name="Group 3032" transform="translate(0)">
    <path id="Path_5272" data-name="Path 5272" d="M807.924,554.381c-2.315,14.244-12.745,25.274-23.85,34.912q-2.326,2.019-4.662,3.959c-.011.006-.021.018-.032.025-.075.062-.15.124-.219.186l-.962.8.2.063.623.191-.639-.173c-.064-.018-.13-.033-.194-.052-7.362-1.989-14.875-4.171-20.893-8.83-6.244-4.839-10.544-13.089-8.391-20.689a13.917,13.917,0,0,1,1.174-2.865c.2-.38.427-.748.662-1.111a14.919,14.919,0,0,1,25.981,1.445c-.105-8.375-7.755-14.482-14.93-18.8s-15.3-8.986-17.561-17.056a16.142,16.142,0,0,1,2.271-13.021c.077-.119.153-.238.233-.354a21.772,21.772,0,0,1,13-9.123c9.94-2.255,20.356,1.9,28.509,8.018C801.364,521.745,810.555,538.185,807.924,554.381Z" transform="translate(-555.677 -366.763)" fill="#f2f2f2"/>
    <path id="Path_5273" data-name="Path 5273" d="M790.635,551.853a37.014,37.014,0,0,1,5.569,9.181,32.139,32.139,0,0,1,2.235,9.292,41.177,41.177,0,0,1-3.12,19.248,59.264,59.264,0,0,1-7.451,12.927q-2.326,2.019-4.662,3.96c-.011.006-.021.018-.032.025-.075.062-.15.124-.219.186l-.962.8.2.063.623.192-.639-.173c-.064-.018-.13-.033-.194-.052a32.47,32.47,0,0,0-28.11-32.385c.2-.38.427-.748.662-1.11a34.254,34.254,0,0,1,5.869,1.45,33.566,33.566,0,0,1,16.813,12.718,34.317,34.317,0,0,1,5.955,18.251c.257-.3.514-.6.762-.9a60.171,60.171,0,0,0,11.208-18.871,38.307,38.307,0,0,0,1.821-18.473c-1.078-6.766-4.543-12.737-9.122-17.747a80.185,80.185,0,0,0-16.959-13.74,91.115,91.115,0,0,0-20.16-9.333.655.655,0,0,1-.428-.8.557.557,0,0,1,.233-.354.485.485,0,0,1,.42-.032c.874.282,1.742.569,2.606.874a92.146,92.146,0,0,1,20.4,10.2A74.172,74.172,0,0,1,790.635,551.853Z" transform="translate(-559.471 -379.971)" fill="#fff"/>
    <path id="Path_5274" data-name="Path 5274" d="M545.427,489.341a2.79,2.79,0,0,1-2.78-2.608l-.414-6.322a2.79,2.79,0,0,1,2.6-2.966l49.526-3.243a5.958,5.958,0,1,1,.779,11.89l-49.526,3.243Q545.521,489.341,545.427,489.341Z" transform="translate(-439.409 -349.988)" fill="#faa94e"/>
    <path id="Path_5275" data-name="Path 5275" d="M568.6,489.37a2.794,2.794,0,0,1-2.787-2.686l-.353-9.442a2.79,2.79,0,0,1,2.684-2.892l40.727-1.522a2.79,2.79,0,0,1,2.892,2.684l.353,9.442a2.79,2.79,0,0,1-2.684,2.892L568.7,489.367Z" transform="translate(-452.815 -349.201)" fill="#911d74"/>
    <path id="Path_5276" data-name="Path 5276" d="M673.287,638.09h-6.335a2.793,2.793,0,0,1-2.79-2.79V582.5a2.793,2.793,0,0,1,2.79-2.79h6.335a2.793,2.793,0,0,1,2.79,2.79v52.8A2.793,2.793,0,0,1,673.287,638.09Z" transform="translate(-509.777 -410.883)" fill="#6d2b70"/>
    <path id="Path_5277" data-name="Path 5277" d="M610.022,578.6l-5.418-3.284a2.793,2.793,0,0,1-.94-3.832l27.369-45.153a2.793,2.793,0,0,1,3.832-.94l5.418,3.284a2.793,2.793,0,0,1,.94,3.832L613.854,577.66A2.793,2.793,0,0,1,610.022,578.6Z" transform="translate(-474.632 -379.304)" fill="#6d2b70"/>
    <circle id="Ellipse_7" data-name="Ellipse 7" cx="21.89" cy="21.89" r="21.89" transform="translate(131.998 69.943)" fill="#faa94e"/>
    <path id="Path_5278" data-name="Path 5278" d="M630.973,395.855a5.191,5.191,0,0,1-1.9-1.113,3.491,3.491,0,0,1-1.02-2.764,2.349,2.349,0,0,1,1.044-1.808,3.037,3.037,0,0,1,2.9-.034l-.04-8.546.858,0,.047,10.046-.661-.416a2.6,2.6,0,0,0-2.636-.324,1.508,1.508,0,0,0-.653,1.167,2.638,2.638,0,0,0,.759,2.061,7.1,7.1,0,0,0,3.908,1.442l-.136.847A14.145,14.145,0,0,1,630.973,395.855Z" transform="translate(-488.934 -296.547)" fill="#2f2e41"/>
    <rect id="Rectangle_1535" data-name="Rectangle 1535" width="0.858" height="4.623" transform="translate(134.061 85.464) rotate(-82.477)" fill="#2f2e41"/>
    <rect id="Rectangle_1536" data-name="Rectangle 1536" width="0.858" height="4.623" transform="translate(148.529 87.374) rotate(-82.477)" fill="#2f2e41"/>
    <path id="Path_5279" data-name="Path 5279" d="M650.858,529.018H613.945a3.652,3.652,0,0,1-3.648-3.648l7.728-59.26a3.644,3.644,0,0,1,3.647-3.621h13.1a19.758,19.758,0,0,1,19.735,19.736V525.37a3.652,3.652,0,0,1-3.648,3.648Z" transform="translate(-478.692 -343.236)" fill="#911d74"/>
    <path id="Path_5280" data-name="Path 5280" d="M668.315,534.858a2.794,2.794,0,0,1-2.562,1.63l-6.335-.055a2.79,2.79,0,0,1-2.766-2.814l.43-49.631a5.957,5.957,0,1,1,11.914.1l-.43,49.631a2.774,2.774,0,0,1-.253,1.136Z" transform="translate(-505.444 -352.234)" fill="#faa94e"/>
    <path id="Path_5281" data-name="Path 5281" d="M668.812,519.873a2.794,2.794,0,0,1-2.561,1.63l-10.82-.094a2.793,2.793,0,0,1-2.766-2.814l.353-40.754a2.79,2.79,0,0,1,2.814-2.766l10.82.094a2.79,2.79,0,0,1,2.766,2.814l-.353,40.754A2.779,2.779,0,0,1,668.812,519.873Z" transform="translate(-503.142 -350.499)" fill="#911d74"/>
    <path id="Path_5282" data-name="Path 5282" d="M639.335,339.567c-2.926-2.422-6.838-.131-10.147-.456-3.166-.311-5.714-3.1-6.409-6.1-.81-3.5.946-7.051,3.591-9.292a13.949,13.949,0,0,1,10.494-2.843,26.372,26.372,0,0,1,11.687,4.654,52.3,52.3,0,0,1,9.35,7.622,20.121,20.121,0,0,1,5.41,9.543,13.232,13.232,0,0,1-1.64,9.886,10.39,10.39,0,0,1-4,3.427c-1.674.862-3.465,1.489-5.084,2.458-2.448,1.466-4.8,4.452-3.964,7.5a4.2,4.2,0,0,0,.989,1.78c.566.6,1.549-.227.982-.833a3.544,3.544,0,0,1-.49-3.812,6.985,6.985,0,0,1,3.039-3.473c1.695-1.012,3.575-1.653,5.315-2.579a11.6,11.6,0,0,0,4.186-3.606,14.345,14.345,0,0,0,2.06-10.283,20.288,20.288,0,0,0-5.116-10.069,50.688,50.688,0,0,0-9.448-8.046,29.922,29.922,0,0,0-12.057-5.309,16.03,16.03,0,0,0-11.227,2.026,11.839,11.839,0,0,0-5.556,9.1,9.544,9.544,0,0,0,4.615,8.473,8.2,8.2,0,0,0,4.918,1.041c1.827-.152,3.647-.747,5.49-.626a3.837,3.837,0,0,1,2.278.87c.639.529,1.369-.533.735-1.058Z" transform="translate(-485.038 -260.717)" fill="#2f2e41"/>
    <path id="Path_5283" data-name="Path 5283" d="M603.04,628.851q.012-.073.028-.145a2.771,2.771,0,0,1,1.215-1.756l5.324-3.434a2.793,2.793,0,0,1,3.857.832l16.422,25.461a2.79,2.79,0,0,1-.832,3.857L623.73,657.1a2.793,2.793,0,0,1-3.857-.832L603.45,630.807a2.77,2.77,0,0,1-.41-1.956Z" transform="translate(-474.483 -435.908)" fill="#6d2b70"/>
    <path id="Path_336" data-name="Path 336" d="M407.72,235.451a5.389,5.389,0,0,0-4.928-3.3h-98.36a5.335,5.335,0,0,0-5.332,5.332V361.92a5.335,5.335,0,0,0,5.332,5.332H402.8a5.339,5.339,0,0,0,5.332-5.332V237.485a5.237,5.237,0,0,0-.4-2.035Zm-.78,126.469a4.153,4.153,0,0,1-4.148,4.148h-98.36a4.148,4.148,0,0,1-4.148-4.146V237.486a4.153,4.153,0,0,1,4.148-4.148H402.8a4.168,4.168,0,0,1,3.85,2.609,4.6,4.6,0,0,1,.156.468,4.112,4.112,0,0,1,.142,1.071Z" transform="translate(-299.101 -210.309)" fill="#3f3d56"/>
    <path id="Path_337" data-name="Path 337" d="M463.743,295.154H434.115a2.37,2.37,0,0,1,0-4.741h29.627a2.37,2.37,0,1,1,0,4.741Z" transform="translate(-375.65 -243.931)" fill="#3f3d56"/>
    <path id="Path_338" data-name="Path 338" d="M463.743,324.578H434.115a2.37,2.37,0,0,1,0-4.741h29.627a2.37,2.37,0,1,1,0,4.741Z" transform="translate(-375.65 -260.911)" fill="#3f3d56"/>
    <path id="Path_339" data-name="Path 339" d="M368.219,305.656H346.567a2.669,2.669,0,0,1-2.667-2.667V277.439a2.669,2.669,0,0,1,2.667-2.667h21.652a2.669,2.669,0,0,1,2.667,2.667V302.99A2.67,2.67,0,0,1,368.219,305.656Z" transform="translate(-324.955 -234.904)" fill="#911d74"/>
    <path id="Path_340" data-name="Path 340" d="M412.315,384.827H345.357a2.37,2.37,0,0,1,0-4.741h66.958a2.37,2.37,0,1,1,0,4.741Z" transform="translate(-324.428 -295.681)" fill="#ccc"/>
    <path id="Path_341" data-name="Path 341" d="M412.315,414.251H345.357a2.37,2.37,0,0,1,0-4.741h66.958a2.37,2.37,0,0,1,0,4.741Z" transform="translate(-324.428 -312.662)" fill="#ccc"/>
    <path id="Path_342" data-name="Path 342" d="M412.315,443.675H345.357a2.37,2.37,0,0,1,0-4.741h66.958a2.37,2.37,0,1,1,0,4.741Z" transform="translate(-324.428 -329.642)" fill="#ccc"/>
    <path id="Path_343" data-name="Path 343" d="M412.315,473.1H345.357a2.37,2.37,0,0,1,0-4.741h66.958a2.37,2.37,0,1,1,0,4.741Z" transform="translate(-324.428 -346.623)" fill="#ccc"/>
    <path id="Path_344" data-name="Path 344" d="M412.315,502.523H345.357a2.37,2.37,0,1,1,0-4.741h66.958a2.37,2.37,0,1,1,0,4.741Z" transform="translate(-324.428 -363.603)" fill="#ccc"/>
    <circle id="Ellipse_44" data-name="Ellipse 44" cx="22.875" cy="22.875" r="22.875" transform="translate(86.48 0)" fill="#37a64c"/>
    <path id="Path_395" data-name="Path 395" d="M541.728,231.483a2.373,2.373,0,0,1-1.427-.474l-.026-.019-5.376-4.112a2.389,2.389,0,1,1,2.907-3.792l3.482,2.67,8.228-10.734a2.388,2.388,0,0,1,3.348-.442h0l-.051.071.052-.071a2.391,2.391,0,0,1,.442,3.349l-9.678,12.621a2.389,2.389,0,0,1-1.9.932Z" transform="translate(-434.64 -199.882)" fill="#fff"/>
    <path id="Path_5284" data-name="Path 5284" d="M686.95,718.346H531.322a.423.423,0,0,1,0-.846H686.95a.423.423,0,0,1,0,.846Z" transform="translate(-432.871 -490.402)" fill="#3f3d56"/>
    <path id="Icon_material-mail" data-name="Icon material-mail" d="M17.4,6H4.6A1.6,1.6,0,0,0,3.008,7.6L3,17.2a1.6,1.6,0,0,0,1.6,1.6H17.4A1.6,1.6,0,0,0,19,17.2V7.6A1.6,1.6,0,0,0,17.4,6Zm0,3.2-6.4,4-6.4-4V7.6l6.4,4,6.4-4Z" transform="translate(21.438 42.91)" fill="#fff"/>
  </g>
</svg>
