<svg id="Group_3018" data-name="Group 3018" xmlns="http://www.w3.org/2000/svg" width="16" height="16" viewBox="0 0 16 16">
  <path id="Icon_awesome-lock" data-name="Icon awesome-lock" d="M12.5,7h-.75V4.75a4.75,4.75,0,0,0-9.5,0V7H1.5A1.5,1.5,0,0,0,0,8.5v6A1.5,1.5,0,0,0,1.5,16h11A1.5,1.5,0,0,0,14,14.5v-6A1.5,1.5,0,0,0,12.5,7ZM9.25,7H4.75V4.75a2.25,2.25,0,0,1,4.5,0Z" transform="translate(1)" fill="#911d74"/>
  <rect id="Rectangle_1417" data-name="Rectangle 1417" width="16" height="16" fill="#fff" opacity="0"/>
</svg>
