<svg xmlns="http://www.w3.org/2000/svg" width="211.466" height="130.336" viewBox="0 0 211.466 130.336">
  <g id="Layer_4" transform="translate(-59.29 -76.45)">
    <g id="Group_4" data-name="Group 4" transform="translate(59.29 76.45)">
      <g id="Group_3" data-name="Group 3" transform="translate(0 0)">
        <path id="Path_7" data-name="Path 7" d="M237.8,123.834h26.507V110.25H195.66v13.584h27.189V194.47H237.8Z" transform="translate(-138.958 -96.196)" fill="#f2674f"/>
        <path id="Path_8" data-name="Path 8" d="M261.05,282.167v11.547H276V282.845a13.072,13.072,0,0,0-8.158-2.715A11.466,11.466,0,0,0,261.05,282.167Z" transform="translate(-177.159 -195.44)" fill="rgba(242,103,79,0.9)"/>
        <path id="Path_9" data-name="Path 9" d="M261.05,236.56v16.981c2.037,3.4,6.116,5.434,10.877,5.434,1.36,0,2.719-.678,4.079-.678v-26.49c-1.36,0-2.719-.678-4.079-.678C267.166,231.126,263.087,233.163,261.05,236.56Z" transform="translate(-177.159 -166.815)" fill="rgba(240,80,75,0.9)"/>
        <path id="Path_10" data-name="Path 10" d="M278.865,210.918V183.75a13.956,13.956,0,0,0-12.915,13.584C265.95,204.806,271.389,210.24,278.865,210.918Z" transform="translate(-180.021 -139.135)" fill="rgba(252,180,46,0.9)"/>
        <path id="Path_11" data-name="Path 11" d="M310.768,123.834h20.391V110.25H313.487a14.724,14.724,0,0,0-3.4,9.509C310.09,121.115,310.768,122.474,310.768,123.834Z" transform="translate(-205.808 -96.196)" fill="rgba(0,152,213,0.9)"/>
        <path id="Path_12" data-name="Path 12" d="M305.812,110.25H280.66c1.36,6.112,6.116,10.869,12.237,10.869S304.452,116.362,305.812,110.25Z" transform="translate(-188.615 -96.196)" fill="rgba(0,182,235,0.9)"/>
        <path id="Path_13" data-name="Path 13" d="M222.167,110.25H195.66v13.584h19.713C219.448,120.437,221.489,115.68,222.167,110.25Z" transform="translate(-138.958 -96.196)" fill="rgba(135,59,130,0.9)"/>
        <path id="Path_14" data-name="Path 14" d="M252.12,123.834H259.6a19.245,19.245,0,0,0-8.158-13.584h-23.11a19.273,19.273,0,0,0-8.158,13.584h16.994v22.411h2.719a19.009,19.009,0,0,0,12.237-4.075V123.834Z" transform="translate(-153.277 -96.196)" fill="rgba(169,47,134,0.75)"/>
        <path id="Path_15" data-name="Path 15" d="M278.865,196.656V183.75a13.956,13.956,0,0,0-12.915,13.584,19.755,19.755,0,0,0,1.36,6.112C272.067,203.446,276.145,200.731,278.865,196.656Z" transform="translate(-180.021 -139.135)" fill="rgba(242,103,79,0.9)"/>
        <path id="Path_16" data-name="Path 16" d="M421.607,214.5l-18.32-26.594c9.16-2.753,16.486-10.087,16.486-21.089,0-13.755-10.075-22.008-26.565-22.008H362.98V214.5h11.909V189.745H390.46L406.946,214.5Zm-14.653-46.765c0,6.42-5.5,11-14.657,11H374.892V155.816H392.3C401.458,155.816,406.955,159.484,406.955,167.737Z" transform="translate(-236.707 -116.386)" fill="rgba(73,91,105,0.9)"/>
        <path id="Path_17" data-name="Path 17" d="M362.99,274.564v14.673H374.9V275.483a10.4,10.4,0,0,0-7.326-2.753A6.982,6.982,0,0,0,362.99,274.564Z" transform="translate(-236.712 -191.117)" fill="rgba(109,60,140,0.9)"/>
        <path id="Path_18" data-name="Path 18" d="M482.1,296.962l-7.326-11a13.215,13.215,0,0,0-8.245,10.087l.915.919H482.1Z" transform="translate(-297.201 -198.846)" fill="rgba(32,180,97,0.85)"/>
        <path id="Path_19" data-name="Path 19" d="M458.044,269.211l-9.16-11.921h-2.748c-2.748,0-6.412.919-8.245,3.667L450.713,279.3A14.184,14.184,0,0,0,458.044,269.211Z" transform="translate(-280.469 -182.097)" fill="rgba(250,169,78,0.9)"/>
        <path id="Path_20" data-name="Path 20" d="M454.2,226.544l-4.582-6.42c8.245-1.834,13.742-7.335,15.572-16.507a13.992,13.992,0,0,0-9.16-3.667h-2.748c0,6.42-4.582,10.087-10.994,11V213.7C442.294,220.124,447.791,225.625,454.2,226.544Z" transform="translate(-283.04 -148.599)" fill="rgba(252,180,46,0.9)"/>
        <path id="Path_21" data-name="Path 21" d="M430.491,208.77c.915.919.915,1.834.915,3.667a14.1,14.1,0,0,1-13.742,13.755c-5.5,0-10.994-4.586-12.823-10.087h11.908C424.079,216.109,429.576,213.356,430.491,208.77Z" transform="translate(-261.161 -153.752)" fill="rgba(242,103,79,0.9)"/>
        <path id="Path_22" data-name="Path 22" d="M400.44,245.151h11.908l10.075,15.588c1.833-2.753,1.833-4.586,1.833-7.335,0-8.254-5.5-13.755-12.823-13.755C406.852,239.65,402.274,241.484,400.44,245.151Z" transform="translate(-258.591 -171.792)" fill="rgba(240,84,75,0.9)"/>
        <path id="Path_23" data-name="Path 23" d="M388.63,144.82H362.98v15.592c1.834,4.586,6.411,7.335,11.908,7.335V155.826H390.46v-2.753A21.778,21.778,0,0,0,388.63,144.82Z" transform="translate(-236.707 -116.392)" fill="rgba(0,152,213,0.85)"/>
        <path id="Path_24" data-name="Path 24" d="M362.99,144.82v30.262h.915A15.157,15.157,0,0,0,374.9,170.5V155.822h3.663a14.85,14.85,0,0,0-14.657-11Z" transform="translate(-236.712 -116.392)" fill="rgba(169,47,134,0.9)"/>
        <path id="Path_25" data-name="Path 25" d="M373.806,183.543l3.663-2.753V166.117h3.663a4.754,4.754,0,0,0-1.834-3.667h0c-6.412,0-11.909,5.5-11.909,11S370.138,181.71,373.806,183.543Z" transform="translate(-239.283 -126.691)" fill="rgba(175,59,144,0.9)"/>
        <path id="Path_26" data-name="Path 26" d="M362.99,197.75v35.763h2.748a27.136,27.136,0,0,0,9.16-1.834v-11h8.245a17,17,0,0,0,0-11H374.9V199.588c-2.748-1.834-5.5-1.834-9.16-1.834Q364.36,197.748,362.99,197.75Z" transform="translate(-236.712 -147.314)" fill="rgba(135,59,130,0.9)"/>
        <path id="Path_27" data-name="Path 27" d="M374,270.872a17.255,17.255,0,0,0,7.326-1.834V261.7C377.667,262.619,374.919,266.286,374,270.872Z" transform="translate(-243.144 -184.674)" fill="rgba(90,138,196,0.6)"/>
        <path id="Path_28" data-name="Path 28" d="M381.331,289.227V275.473l-5.5-2.753c-.915,1.834-1.834,3.667-1.834,5.5A11.912,11.912,0,0,0,381.331,289.227Z" transform="translate(-243.144 -191.112)" fill="rgba(90,138,196,0.6)"/>
        <path id="Path_29" data-name="Path 29" d="M459.157,244.927l-8.245-11.921a31.042,31.042,0,0,0,12.823-8.254A10.4,10.4,0,0,0,456.409,222,12.132,12.132,0,0,0,444.5,233.921c0,5.5,5.5,11,11.909,11C457.323,244.927,458.242,244.927,459.157,244.927Z" transform="translate(-284.331 -161.481)" fill="rgba(251,177,94,0.65)"/>
        <path id="Path_30" data-name="Path 30" d="M468.6,101.211l-5.5,5.5,5.5,5.5-7.326,6.42,10.075,11-10.994,11-10.075-10.087-4.582,4.586-3.663-3.667-7.326,8.254-9.16-8.254,1.834-1.834v-.919l-9.16,9.168-10.994-11.921,8.245-7.335-9.16-9.168,3.663-3.667-7.326-7.335L410.9,90.2l7.326,6.42,1.834-1.834-8.245-8.254,9.16-10.087,7.326,7.335,6.412-6.42,5.5,6.42,6.412-6.42L463.1,94.787Zm-36.64-9.172L428.3,88.371h-.915l3.663,4.586Z" transform="translate(-259.882 -76.45)" fill="#fff"/>
        <path id="Path_31" data-name="Path 31" d="M468.74,94.266l4.578-4.586,3.663,4.586-3.663,3.667Z" transform="translate(-298.492 -84.179)" fill="#20b78d"/>
        <path id="Path_32" data-name="Path 32" d="M435.69,94.266l4.578-4.586,4.582,4.586-4.582,4.586Z" transform="translate(-279.184 -84.179)" fill="#0098d5"/>
        <path id="Path_33" data-name="Path 33" d="M413.66,124.227l3.663-3.667,4.582,3.667-4.582,3.667Z" transform="translate(-266.314 -102.219)" fill="#5a8ac4"/>
        <path id="Path_34" data-name="Path 34" d="M479.75,150.321l4.582-5.5,5.493,5.5-4.578,5.5Z" transform="translate(-304.924 -116.392)" fill="#00b6eb"/>
        <path id="Path_35" data-name="Path 35" d="M422.47,149.4l5.5-4.582,5.5,5.5-5.5,4.586Z" transform="translate(-271.461 -116.392)" fill="#911d74"/>
        <path id="Path_36" data-name="Path 36" d="M440.1,124.4l8.241-8.254,8.245,8.254-8.245,8.249Z" transform="translate(-281.76 -99.643)" fill="#6d2b70"/>
        <path id="Path_37" data-name="Path 37" d="M446.7,164.094l8.245-8.254,8.245,9.172-8.245,8.254Z" transform="translate(-285.616 -122.83)" fill="#a92f86"/>
        <path id="Path_38" data-name="Path 38" d="M424.67,186.52l6.416-6.42,7.326,7.339-7.326,6.416Z" transform="translate(-272.746 -137.003)" fill="#faa94e"/>
        <path id="Path_39" data-name="Path 39" d="M468.74,202.332l4.578-4.582,3.663,4.582L473.318,206Z" transform="translate(-298.492 -147.314)" fill="#fcb42e"/>
        <path id="Path_40" data-name="Path 40" d="M479.75,102.52l11.908-12.84,11.909,12.84-11.909,11.921Z" transform="translate(-304.924 -84.179)" fill="#20b461"/>
        <path id="Path_41" data-name="Path 41" d="M512.8,152.155l7.326-7.335,7.33,7.335-7.33,7.335Z" transform="translate(-324.232 -116.392)" fill="#f2674f"/>
        <path id="Path_42" data-name="Path 42" d="M488.56,178.615l7.331-7.335,7.326,7.335-7.326,7.339Z" transform="translate(-310.071 -131.85)" fill="#f0504b"/>
        <path id="Path_43" data-name="Path 43" d="M526.01,194.425l6.416-5.505,6.412,6.42-6.412,5.5Z" transform="translate(-331.949 -142.155)" fill="#f0544b"/>
        <path id="Path_44" data-name="Path 44" d="M530.42,130.841,535,127.17l3.663,3.671L535,134.509Z" transform="translate(-334.526 -106.081)" fill="#afd57f"/>
        <g id="Group_2" data-name="Group 2" transform="translate(0 27.838)">
          <path id="Path_45" data-name="Path 45" d="M115.165,143.4H59.29v75.039h56.794v-11.9H73.028V186.41h37.559v-11.9H73.028V155.3h42.137Z" transform="translate(-59.29 -143.4)" fill="#495b69"/>
          <path id="Path_46" data-name="Path 46" d="M142.19,143.4H106.465c-.915,1.829-.915,3.659-.915,6.407a11.6,11.6,0,0,0,.915,5.488H142.19Z" transform="translate(-86.315 -143.4)" fill="rgba(242,103,79,0.9)"/>
          <path id="Path_47" data-name="Path 47" d="M84.936,143.4H59.29v33.858c2.748,0,4.582.915,7.326.915,3.663,0,7.326-1.829,10.994-3.659H73.028V155.3H88.6C88.6,150.722,87.685,147.063,84.936,143.4Z" transform="translate(-59.29 -143.4)" fill="rgba(240,80,75,0.9)"/>
          <path id="Path_48" data-name="Path 48" d="M74.313,225.482v-14.64h37.559c.915-1.829,0-3.659,0-5.488s.915-4.574,0-6.407H74.313V185.22a22.213,22.213,0,0,0,0,40.262Z" transform="translate(-60.575 -167.831)" fill="rgba(252,180,46,0.95)"/>
          <path id="Path_49" data-name="Path 49" d="M59.29,187.42v43.925a25.207,25.207,0,0,0,13.742-7.322v-11.9h5.5v-2.744a32.39,32.39,0,0,0-1.834-9.152H73.032v-5.489A25.221,25.221,0,0,0,59.29,187.42Z" transform="translate(-59.29 -169.117)" fill="rgba(252,180,46,0.85)"/>
          <path id="Path_50" data-name="Path 50" d="M59.29,270.68v21.048H91.352c0-4.574-.915-8.237-3.663-11.9H73.028V269.765c-1.834,0-2.748-.915-4.582-.915A32.588,32.588,0,0,0,59.29,270.68Z" transform="translate(-59.29 -216.688)" fill="rgba(169,47,134,0.8)"/>
          <path id="Path_51" data-name="Path 51" d="M176.458,234.878l7.326,7.322-6.412,6.407,5.5,6.407-8.245,8.237,11.908,11.9-11.908,11.9-11.908-11.9-5.5,5.489-10.994-11.9h0l7.326,8.237-9.16,9.152-9.16-9.152,1.834-1.829-.915-1.829L126.076,284.3l-12.823-12.811,9.16-9.16-10.075-10.066,4.582-4.574-9.16-9.152,9.16-9.152,8.245,8.237,2.748-3.659-9.16-10.066,10.075-10.066,8.245,9.152,7.326-8.237,7.326,7.322,6.412-7.322,19.235,19.218Zm-33.892-3.663-5.5-5.489-1.834,1.829,5.5,5.488Zm6.412,11.9-7.326,7.322h0l7.326-7.322Z" transform="translate(-87.606 -184.545)" fill="#fff"/>
          <path id="Path_52" data-name="Path 52" d="M184.86,232.893l4.582-3.663,4.578,4.578-4.578,3.659Z" transform="translate(-132.648 -193.542)" fill="#20b78d"/>
          <path id="Path_53" data-name="Path 53" d="M145.21,231.608l5.493-4.578,5.5,5.493-5.5,4.574Z" transform="translate(-109.485 -192.257)" fill="#0098d5"/>
          <path id="Path_54" data-name="Path 54" d="M120.97,266.818l3.663-4.578,4.582,4.578-3.663,4.574Z" transform="translate(-95.324 -212.827)" fill="#5a8ac4"/>
          <path id="Path_55" data-name="Path 55" d="M195.88,297.257l6.412-6.407,6.412,6.407-6.412,6.4Z" transform="translate(-139.086 -229.541)" fill="#00b6eb"/>
          <path id="Path_56" data-name="Path 56" d="M129.78,297.257l6.416-6.407,6.412,6.407-6.412,6.4Z" transform="translate(-100.47 -229.541)" fill="#911d74"/>
          <path id="Path_57" data-name="Path 57" d="M151.81,266.992l9.164-9.152,10.075,9.152-10.075,10.066Z" transform="translate(-113.34 -210.256)" fill="#6d2b70"/>
          <path id="Path_58" data-name="Path 58" d="M158.42,315.412,168.5,306.26l9.16,10.066-9.16,9.152Z" transform="translate(-117.202 -238.543)" fill="#a92f86"/>
          <path id="Path_59" data-name="Path 59" d="M131.99,342.192l8.241-7.322,7.331,7.322-7.331,7.318Z" transform="translate(-101.762 -255.257)" fill="#faa94e"/>
          <path id="Path_60" data-name="Path 60" d="M184.86,359.254l4.582-4.574,4.578,4.574-4.578,4.574Z" transform="translate(-132.648 -266.83)" fill="#fcb42e"/>
          <path id="Path_61" data-name="Path 61" d="M195.88,242.955l13.738-13.725,14.657,13.725L210.533,257.6Z" transform="translate(-139.086 -193.542)" fill="#20b461"/>
          <path id="Path_62" data-name="Path 62" d="M235.53,299.087l9.16-8.237L252.935,300l-8.245,8.237Z" transform="translate(-162.25 -229.541)" fill="#f2674f"/>
          <path id="Path_63" data-name="Path 63" d="M206.89,332.1l8.245-8.233,8.245,8.233-8.245,8.237Z" transform="translate(-145.518 -248.831)" fill="#f0504b"/>
          <path id="Path_64" data-name="Path 64" d="M250.95,348.792l7.33-7.322,7.326,8.237-7.326,7.318Z" transform="translate(-171.258 -259.113)" fill="#f0544b"/>
          <path id="Path_65" data-name="Path 65" d="M257.56,275.624l4.582-4.574,4.578,4.574-4.578,4.574Z" transform="translate(-175.12 -217.973)" fill="#afd57f"/>
          <path id="Path_66" data-name="Path 66" d="M59.29,177.335v25.621c.915,0,7.326.915,11.908-1.829a13.042,13.042,0,0,0,3.663-7.322H73.028v-14.64q-2.751-2.744-8.245-2.744A11.619,11.619,0,0,0,59.29,177.335Z" transform="translate(-59.29 -162.69)" fill="rgba(250,169,78,0.15)"/>
          <path id="Path_67" data-name="Path 67" d="M59.29,238.961v23.792a9.978,9.978,0,0,0,4.582.915c3.663,0,6.412-1.829,9.16-3.659v-18.3c-2.748-1.829-6.412-3.659-9.16-3.659S61.12,238.046,59.29,238.961Z" transform="translate(-59.29 -198.695)" fill="rgba(135,59,130,0.9)"/>
        </g>
      </g>
    </g>
  </g>
</svg>
