<svg id="Group_2966" data-name="Group 2966" xmlns="http://www.w3.org/2000/svg" width="32" height="32" viewBox="0 0 32 32">
  <g id="menu-left" transform="translate(0 5)">
    <path id="Path_5251" data-name="Path 5251" d="M3,9.091A1.591,1.591,0,0,1,4.591,7.5H17.407a1.592,1.592,0,1,1,0,3.184H4.591A1.591,1.591,0,0,1,3,9.091Z" transform="translate(-2.999 -7.5)" fill="#fff"/>
    <path id="Path_5252" data-name="Path 5252" d="M3,18.1a1.591,1.591,0,0,1,1.591-1.591H33.408a1.592,1.592,0,0,1,0,3.184H4.591A1.591,1.591,0,0,1,3,18.1Z" transform="translate(-2.999 -6.899)" fill="#fff"/>
    <path id="Path_5253" data-name="Path 5253" d="M4.592,25.515a1.592,1.592,0,1,0,0,3.184H23.808a1.592,1.592,0,0,0,0-3.184Z" transform="translate(-3 -6.299)" fill="#fff"/>
  </g>
  <rect id="Rectangle_1415" data-name="Rectangle 1415" width="32" height="32" fill="#fff" opacity="0"/>
</svg>
