<svg width="18" height="15" viewBox="0 0 18 15" fill="none" xmlns="http://www.w3.org/2000/svg">
<path d="M9 1C4.90909 1 1.41545 3.68591 0 7.47727C1.41545 11.2686 4.90909 13.9545 9 13.9545C13.0909 13.9545 16.5845 11.2686 18 7.47727C16.5845 3.68591 13.0909 1 9 1ZM9 11.7955C6.74182 11.7955 4.90909 9.86091 4.90909 7.47727C4.90909 5.09364 6.74182 3.15909 9 3.15909C11.2582 3.15909 13.0909 5.09364 13.0909 7.47727C13.0909 9.86091 11.2582 11.7955 9 11.7955ZM9 4.88636C7.64182 4.88636 6.54545 6.04364 6.54545 7.47727C6.54545 8.91091 7.64182 10.0682 9 10.0682C10.3582 10.0682 11.4545 8.91091 11.4545 7.47727C11.4545 6.04364 10.3582 4.88636 9 4.88636Z" fill="#0E133C" fill-opacity="0.35"/>
<line x1="17.3694" y1="13.7761" x2="1.36941" y2="0.776114" stroke="#ABACBB" stroke-width="2"/>
</svg>
