<svg width="18" height="13" viewBox="0 0 18 13" fill="none" xmlns="http://www.w3.org/2000/svg">
<path d="M9 0C4.90909 0 1.41545 2.68591 0 6.47727C1.41545 10.2686 4.90909 12.9545 9 12.9545C13.0909 12.9545 16.5845 10.2686 18 6.47727C16.5845 2.68591 13.0909 0 9 0ZM9 10.7955C6.74182 10.7955 4.90909 8.86091 4.90909 6.47727C4.90909 4.09364 6.74182 2.15909 9 2.15909C11.2582 2.15909 13.0909 4.09364 13.0909 6.47727C13.0909 8.86091 11.2582 10.7955 9 10.7955ZM9 3.88636C7.64182 3.88636 6.54545 5.04364 6.54545 6.47727C6.54545 7.91091 7.64182 9.06818 9 9.06818C10.3582 9.06818 11.4545 7.91091 11.4545 6.47727C11.4545 5.04364 10.3582 3.88636 9 3.88636Z" fill="#0E133C" fill-opacity="0.35"/>
</svg>
