<svg xmlns="http://www.w3.org/2000/svg" width="16" height="16" viewBox="0 0 16 16">
  <g id="Group_2968" data-name="Group 2968" transform="translate(1)">
    <path id="Icon_awesome-user" data-name="Icon awesome-user" d="M7,8A4,4,0,1,0,3,4,4,4,0,0,0,7,8ZM9.8,9H9.278A5.44,5.44,0,0,1,4.722,9H4.2A4.2,4.2,0,0,0,0,13.2v1.3A1.5,1.5,0,0,0,1.5,16h11A1.5,1.5,0,0,0,14,14.5V13.2A4.2,4.2,0,0,0,9.8,9Z" transform="translate(1)" fill="#fff"/>
    <rect id="Rectangle_1416" data-name="Rectangle 1416" width="16" height="16" transform="translate(-1)" fill="#fff" opacity="0"/>
  </g>
</svg>
