<svg id="Component_10_39" data-name="Component 10 – 39" xmlns="http://www.w3.org/2000/svg" width="25" height="25" viewBox="0 0 25 25">
  <path id="Icon_awesome-ticket-alt" data-name="Icon awesome-ticket-alt" d="M5.556,8.667H19.444V17H5.556Zm17.361,4.167A2.083,2.083,0,0,0,25,14.917v4.167a2.083,2.083,0,0,1-2.083,2.083H2.083A2.083,2.083,0,0,1,0,19.083V14.917a2.083,2.083,0,0,0,2.083-2.083A2.083,2.083,0,0,0,0,10.75V6.583A2.083,2.083,0,0,1,2.083,4.5H22.917A2.083,2.083,0,0,1,25,6.583V10.75A2.083,2.083,0,0,0,22.917,12.833ZM20.833,8.319a1.042,1.042,0,0,0-1.042-1.042H5.208A1.042,1.042,0,0,0,4.167,8.319v9.028a1.042,1.042,0,0,0,1.042,1.042H19.792a1.042,1.042,0,0,0,1.042-1.042Z" transform="translate(0 -0.5)" fill="#fff"/>
  <rect id="Rectangle_1420" data-name="Rectangle 1420" width="25" height="25" fill="#fff" opacity="0"/>
</svg>
